<?xml version="1.0" encoding="UTF-8"?>
<svg xmlns="http://www.w3.org/2000/svg" width="256" height="256" viewBox="0 0 256 256">
	<rect width="256" height="256" fill="#26E9D8" />
	<defs>
		<radialGradient id="gradient_0" gradientUnits="userSpaceOnUse" cx="0" cy="0" r="1" gradientTransform="translate(133.45 112.95) scale(50.15 50.15) rotate(-349.75)">
			<stop offset="0" stop-color="#FF9999" />
			<stop offset="0.668" stop-color="#FF4D4D" />
			<stop offset="1" stop-color="#FF0000" />
		</radialGradient>
		<linearGradient id="gradient_2" gradientUnits="userSpaceOnUse" x1="52.75" x2="107.3" gradientTransform="rotate(270 80 220.35)">
			<stop offset="0" stop-color="#FF0000" />
			<stop offset="0.207" stop-color="#FFFF9B" />
			<stop offset="0.297" stop-color="#FF0000" stop-opacity="0.784" />
			<stop offset="0.668" stop-color="#FFFF9B" stop-opacity="0.651" />
			<stop offset="1" stop-color="#FF0000" />
		</linearGradient>
		<linearGradient id="gradient_3" gradientUnits="userSpaceOnUse" x1="59.7" x2="91.5" gradientTransform="rotate(270 75.6 217.6)">
			<stop offset="0" stop-color="#FFFF99" />
			<stop offset="0.5" stop-color="#FF0000" />
			<stop offset="1" stop-color="#FFFF99" />
		</linearGradient>
		<linearGradient id="gradient_4" gradientUnits="userSpaceOnUse" x1="125.9" x2="171.3" gradientTransform="rotate(270 148.6 223.85)">
			<stop offset="0" stop-color="#FFFF99" />
			<stop offset="0.5" stop-color="#FF0000" />
			<stop offset="1" stop-color="#FFFF99" />
		</linearGradient>
		<linearGradient id="gradient_5" gradientUnits="userSpaceOnUse" x1="138.45" x2="189.55" gradientTransform="rotate(270 164 232.55)">
			<stop offset="0" stop-color="#FFFF99" />
			<stop offset="0.5" stop-color="#FF0000" />
			<stop offset="1" stop-color="#FFFF99" />
		</linearGradient>
		<linearGradient id="gradient_6" gradientUnits="userSpaceOnUse" x1="196.95" x2="248.85" gradientTransform="rotate(270 222.9 222.55)">
			<stop offset="0" stop-color="#FFFF99" />
			<stop offset="1" stop-color="#FF0000" />
		</linearGradient>
		<linearGradient id="gradient_7" gradientUnits="userSpaceOnUse" x1="202.3" x2="260.7" gradientTransform="rotate(270 231.5 226.25)">
			<stop offset="0" stop-color="#FFFF99" />
			<stop offset="1" stop-color="#FF0000" />
		</linearGradient>
	</defs>
	<path fill="url(#gradient_0)" stroke="#000000" stroke-width="8" d="M176.3 83.15Q197 103.4 197 131.95T176.3 180.75T126.45 201T76.6 180.75T55.9 131.95T76.6 83.15T126.45 62.9T176.3 83.15Z" />
	<path fill="none" stroke="#000000" stroke-width="10" d="M138 110Q156 67 189 63" />
	<path fill="url(#gradient_2)" d="M67.75 246.5Q77.05 244.2 82.2 241.1T89.7 232.8T92.1 219.35L92.2 196.9L99.85 196.9L99.85 219.3Q99.85 229.15 96.9 235.7T87.6 246.45T70.45 253.2L67.75 246.5Z" />
	<path fill="url(#gradient_3)" d="M66.75 230.2L59.05 230.2L59.05 197.35L66.75 197.35L66.75 230.2Z" />
	<path fill="url(#gradient_4)" d="M146.2 216.65Q136.55 210.15 124.45 204.25L127.85 197.5Q139.8 203.65 150.3 210.75L146.2 216.65Z" />
	<path fill="url(#gradient_5)" d="M125.45 243.9Q137.6 241.65 145.8 237.35T159.85 225.85T170.55 206.5L177.05 211.1Q172.45 222.65 165.85 230.55T149.95 243.45T127.35 250.95L125.45 243.9Z" />
	<path fill="url(#gradient_6)" d="M247.5 189.5Q251.55 197.25 253.4 203L248.15 205Q244.85 197 242.05 192.2L247.5 189.5Z" />
	<path fill="url(#gradient_7)" d="M239.8 192.3Q243.95 200.75 245.65 205.85L240.25 207.75L240.3 204.75L240.3 252.6L232.65 252.6L232.65 247.1L191.85 247.1L191.85 240.3L232.65 240.3L232.65 209.6L193.05 209.6L193.05 202.9L238.3 202.9Q236.3 198.6 234.25 195L239.8 192.3Z" />
</svg>
